<svg width="1920" height="1133" viewBox="0 0 1920 1133" fill="none" xmlns="http://www.w3.org/2000/svg">
<path d="M-103.5 139.5C252 190.667 923.8 458 767 1118C762.397 1137.38 757.965 1155.69 753.705 1172.98C822.18 1030.36 934.249 885.954 1088.5 915.5C1490.5 992.5 1616 1083.5 1696.5 999.5C1777 915.5 1651.5 429.5 1906.5 370C2110.5 322.4 2086.83 1030.83 2049.5 1391L368.5 1544.5L-215.5 1146L-103.5 139.5Z" fill="url(#paint0_linear)"/>
<path d="M1091.38 985.24C1087.45 986.964 1089.3 993.363 1093.23 991.639C1225.55 933.313 1378.94 994.345 1472.43 1085.28C1473.05 1085.76 1473.84 1085.94 1474.64 1085.78C1475.44 1085.63 1476.19 1085.15 1476.74 1084.45C1477.28 1083.75 1477.59 1082.88 1477.6 1082.01C1477.6 1081.13 1477.31 1080.33 1476.77 1079.74C1381.42 987.224 1226.15 925.973 1091.38 985.24Z" fill="#1E1A1A"/>
<path d="M-183.789 18.4502C-198.916 5.24152 -229.47 -2.57679 -214.343 10.6318C296.381 455.77 216.367 721.5 -113.145 778.902C-114.648 779.545 -114.344 781.181 -112.296 783.483C-110.247 785.784 -106.604 788.583 -102.095 791.318C-97.5855 794.053 -92.5428 796.523 -87.9743 798.235C-83.4058 799.947 -79.6484 800.774 -77.4535 800.551C257.439 741.582 335.664 471.561 -183.789 18.4502Z" fill="#1E1A1A"/>
<path d="M1039.63 942.059C571.249 638.681 86.018 600.691 -98.0496 619.618L-240 1335.48L487.431 1448.53L2061.36 1555L2130 725.578C2122.72 673.696 2084.24 555.029 1988.57 495.408C1868.98 420.881 1625.11 1321.28 1039.63 942.059Z" fill="url(#paint1_linear)"/>
<path d="M848.785 1205.23C855.439 1212.15 853.774 1227.07 847.12 1220.15C623.129 986.48 389.561 1039.91 258.106 1207.96C257.201 1208.75 255.97 1208.68 254.658 1207.76C253.346 1206.85 252.05 1205.17 251.029 1203.04C250.009 1200.92 249.339 1198.52 249.153 1196.31C248.967 1194.11 249.28 1192.27 250.028 1191.16C384.134 1020.33 620.674 967.581 848.785 1205.23Z" fill="#8F80BC"/>
<path d="M-245.516 829.369C-273.583 836.64 -302.609 871.645 -274.543 864.375C671.873 618.011 1015.65 1018.02 910.474 1548.21C910.553 1551.04 913.127 1552.37 917.681 1551.94C922.235 1551.51 928.432 1549.34 935.036 1545.88C941.639 1542.42 948.16 1537.91 953.296 1533.26C958.433 1528.61 961.805 1524.16 962.739 1520.8C1068.71 981.272 717.61 579.188 -245.516 829.369Z" fill="#8F80BC"/>
<path d="M1992.62 605.638C2000.75 600.622 2013.52 608.265 2005.4 613.281C1731.37 781.844 1709.78 1071.56 1820.3 1287.54C1820.73 1288.88 1820.31 1290.27 1819.11 1291.43C1817.91 1292.6 1816.03 1293.44 1813.84 1293.81C1811.65 1294.17 1809.31 1294.02 1807.3 1293.39C1805.28 1292.76 1803.74 1291.69 1802.97 1290.4C1690.76 1070.31 1713.84 777.426 1992.62 605.638Z" fill="#8F80BC"/>
<g filter="url(#filter0_f)">
<path fill-rule="evenodd" clip-rule="evenodd" d="M563.73 714.867L560.311 725.644C563.609 729.244 566.84 733.031 569.985 737.012C572.48 740.137 573.649 743.366 573.314 746.205C572.978 749.044 571.156 751.335 568.127 752.728C566.152 753.627 563.72 754.114 560.999 754.155C558.278 754.196 555.332 753.79 552.362 752.966C552.142 752.905 551.923 752.842 551.703 752.777L545.562 772.136L532.59 774.557C534.398 780.098 535.04 785.46 534.514 790.476L603.689 872.49C605.257 874.337 606.355 876.249 606.916 878.109C607.478 879.97 607.49 881.74 606.954 883.312C606.418 884.883 605.344 886.224 603.797 887.251C602.25 888.278 600.263 888.971 597.958 889.288C593.968 889.861 589.207 889.27 584.516 887.62C579.825 885.97 575.506 883.366 572.322 880.27L503.9 820.272C501.316 820.926 498.599 821.45 495.759 821.836L479.255 824.108C478.915 824.155 478.573 824.2 478.23 824.243L503.346 884.084C504.914 885.931 506.012 887.843 506.573 889.703C507.135 891.564 507.147 893.334 506.611 894.906C506.075 896.477 505.001 897.818 503.454 898.845C501.907 899.872 499.92 900.565 497.615 900.882C493.63 901.432 488.89 900.829 484.225 899.18C479.56 897.531 475.266 894.94 472.096 891.86L424.517 823.664C414.444 830.492 389.839 832.67 373.913 832.926C338.179 833.456 293.829 812.737 266.188 789.06C246.964 772.615 240.189 756.385 233.226 739.707C230.677 733.6 228.103 727.434 224.883 721.175C222.435 716.472 219.511 711.767 216.135 707.102C227.467 704.004 236.952 699.127 244.117 692.716L244.201 692.639C244.253 692.592 244.305 692.545 244.356 692.498L244.335 692.477C244.246 692.559 244.157 692.641 244.066 692.723C236.902 699.134 227.417 704.01 216.084 707.109C203.266 689 183.957 670.406 164.462 654.947C148.66 642.378 131.987 631.365 114.328 621.15C238.725 631.81 394.462 659.158 563.73 714.867ZM245.582 691.325L245.56 691.304C248.674 688.199 250.941 684.957 252.62 681.555L252.654 681.58C250.972 684.981 248.701 688.222 245.582 691.325ZM253.444 679.874C255.841 674.333 256.835 668.373 257.5 661.901L257.451 661.891C256.787 668.357 255.796 674.312 253.408 679.848L253.444 679.874ZM296.555 693.643C285.922 682.526 273.462 671.968 259.573 662.303C274.027 665.083 290.556 667.674 309.286 669.808C309.347 670.412 309.41 671.015 309.476 671.617C307.814 672.147 306.381 672.892 305.226 673.831C303.611 675.143 302.576 676.807 302.186 678.716C301.797 680.624 302.061 682.737 302.962 684.921C305.842 692.057 310.546 701.015 318.217 710.893C320.488 717.641 323.085 724.154 325.931 730.423C317.242 717.978 308.029 705.454 296.555 693.643Z" fill="#120658" fill-opacity="0.14"/>
</g>
<g clip-path="url(#clip0)">
<path d="M488.428 760.796L480.236 777.281C463.567 786.335 432.061 784.609 413.12 781.757C372.749 775.607 341.193 738.024 330.865 699.519C321.024 662.979 336.786 631.478 343.632 596.441C344.978 589.379 345.794 582.223 346.071 575.036C361.417 572.88 376.242 567.877 389.806 560.276C409.1 549.36 420.521 535.215 432.431 518.354C440.128 535.243 445.234 553.229 447.57 571.687C451.472 600.216 448.108 630.043 446.712 658.452C444.693 698.306 447.57 741.014 488.428 760.796Z" fill="url(#paint2_linear)"/>
<path d="M432.369 518.354C420.459 535.215 409.038 549.36 389.744 560.276C376.18 567.876 361.355 572.88 346.009 575.035C347.405 547.19 341.972 517.415 333.612 491.995C322.19 457.009 304.107 427.797 281.937 399.081C304.662 408.203 327.354 413.277 348.885 425.628C372.569 439.294 391.325 456.89 407.928 478.585C417.53 490.86 425.729 504.201 432.369 518.354Z" fill="url(#paint3_linear)"/>
<path d="M647.814 692.345C647.093 701.527 645.812 710.656 643.979 719.678C639.867 739.509 629.158 757.297 613.651 770.053C598.144 782.808 578.786 789.752 558.83 789.718H538.426C524.886 789.713 511.492 786.876 499.079 781.384C486.665 775.893 475.499 767.863 466.275 757.797C457.051 747.731 449.967 735.843 445.465 722.875C440.963 709.906 439.139 696.135 440.106 682.42C440.779 672.819 441.94 662.723 443.706 652.149C449.812 615.625 463.303 573.567 489.443 528.16L613.6 533.285C613.6 533.285 654.711 606.742 647.814 692.345Z" fill="#FF5F54"/>
<path d="M618.188 543.176L602.41 588.138C655.009 628.198 669.341 665.011 672.217 688.654C672.623 691.784 673.69 694.789 675.344 697.462C676.999 700.134 679.203 702.413 681.805 704.14C684.407 705.868 687.346 707.004 690.421 707.472C693.495 707.939 696.633 707.726 699.619 706.847C704.211 705.48 708.234 702.621 711.072 698.708C713.91 694.795 715.406 690.045 715.33 685.186C714.237 568.151 618.188 543.176 618.188 543.176Z" fill="#FF5F54"/>
<path d="M480.275 733.378L552.606 732.336L513.295 878.396C513.443 881.286 513.011 884.177 512.023 886.892C511.036 889.607 509.515 892.089 507.552 894.188C505.59 896.286 503.227 897.957 500.608 899.098C497.989 900.239 495.169 900.827 492.319 900.825C487.391 900.828 482.62 899.07 478.841 895.859C475.061 892.648 472.514 888.19 471.646 883.264L480.275 733.378Z" fill="#FF5F54"/>
<path d="M556.098 736.469L628.429 734.402L635.426 881.503C635.575 884.394 635.142 887.284 634.155 889.999C633.168 892.714 631.646 895.197 629.684 897.295C627.721 899.394 625.358 901.065 622.739 902.206C620.12 903.347 617.3 903.935 614.45 903.933C609.497 903.967 604.692 902.221 600.884 899.004C597.077 895.788 594.512 891.307 593.642 886.355L556.098 736.469Z" fill="#FF5F54"/>
<path d="M629.899 684.639C629.899 692.72 629.512 700.646 628.772 708.299C627.263 724.214 619.975 738.989 608.326 749.745C596.678 760.501 581.504 766.468 565.76 766.484C550.021 766.458 534.854 760.482 523.218 749.719C511.581 738.956 504.308 724.178 502.815 708.265C502.075 700.612 501.688 692.686 501.688 684.605C501.688 614.753 530.402 558.055 565.811 558.055C601.219 558.055 629.899 614.753 629.899 684.639Z" fill="#F6F0F4"/>
<path d="M647.814 692.344C641.691 695.248 635.652 697.793 629.798 700.031C577.451 719.625 534.086 711.374 501.958 696C479.926 685.369 460.141 670.487 443.706 652.182C449.812 615.658 463.303 573.6 489.443 528.194L613.6 533.319C613.6 533.319 654.711 606.741 647.814 692.344Z" fill="#FFA573"/>
<path d="M628.462 678.867C603.415 691.73 562.371 685.324 536.114 680.319C534.196 679.96 533.372 682.949 535.306 683.308C563.7 688.706 603.146 695.266 629.992 681.6C631.759 680.643 630.211 677.978 628.462 678.867Z" fill="#511812"/>
<path d="M682.309 623.021C682.309 623.021 663.991 604.418 601.383 611.405C601.383 611.405 557.867 620.698 542.61 608.296L460.926 703.653L464.745 714.517L659.399 722.222L758.644 616.017V606.058C758.644 606.058 755.28 606.844 750.721 607.766C740.581 609.835 730.279 610.978 719.938 611.183C709.963 611.405 693.714 613.455 682.309 623.021Z" fill="#F6F0F4"/>
<path d="M459.812 722.342L542.605 621.518L672.044 633.767H699.782L763.299 613.762L657.578 729.687L611.757 732.147H577.98L459.812 722.342Z" fill="#021E40"/>
<path d="M699.782 633.767L611.757 732.148H575.979L669.639 633.767H699.782Z" fill="#194070"/>
<path d="M493.614 544.44C498.394 546.228 502.481 549.53 505.271 553.858C508.061 558.186 509.405 563.312 509.106 568.476C505.641 624.559 522.983 660.433 536.222 677.346C538.129 679.837 539.485 682.717 540.195 685.79C540.905 688.862 540.954 692.054 540.337 695.148C539.721 698.241 538.454 701.162 536.623 703.712C534.792 706.262 532.44 708.381 529.729 709.923C525.551 712.291 520.724 713.203 515.987 712.518C511.25 711.833 506.865 709.589 503.505 706.13C448.55 650.252 453.361 592.392 462.293 560.703C463.181 557.47 464.719 554.459 466.811 551.859C468.902 549.26 471.501 547.129 474.444 545.601C477.387 544.073 480.61 543.181 483.909 542.981C487.209 542.781 490.513 543.278 493.614 544.44Z" fill="#FF5F54"/>
<path d="M435.959 437.125L436.295 436.424C355.251 335.14 388.422 248.204 388.422 248.204C434.546 288.982 452.023 359.141 457.877 391.308L486.254 332.116C485.867 328.836 467.011 244.292 390.794 229.789C390.861 229.789 326.554 377.984 435.959 437.125Z" fill="#FF5F54"/>
<path d="M436.303 436.424L457.952 391.308C452.098 359.141 434.621 288.981 388.498 248.204C388.43 248.204 355.259 335.139 436.303 436.424Z" fill="url(#paint4_linear)"/>
<path d="M609.452 382.272L671.69 404.207C667.502 388.439 636.08 267.68 641.631 199.433C706.577 264.348 712.078 334.389 685.584 407.042C694.281 395.631 741.733 324.327 664.44 216.943L637.173 181.069C637.173 181.069 586.743 274.017 609.452 382.272Z" fill="#FF5F54"/>
<path d="M641.572 199.484C636.021 267.73 667.442 388.489 671.631 404.257L684.247 408.699C684.247 408.699 684.718 408.169 685.525 407.093C712.019 334.439 706.518 264.399 641.572 199.484Z" fill="url(#paint5_linear)"/>
<path d="M402.627 454.02C504.345 466.627 573.766 438.833 573.766 438.833C666.955 467.498 716.022 464.338 741.876 453.712C749.057 444.509 755.049 434.41 759.707 423.663C759.707 423.663 745.308 430.958 739.084 425.747C739.084 425.747 760.8 416.933 765.325 407.639C765.325 407.639 740.312 421.169 720.901 400.396C720.901 400.396 671.093 273.982 560.898 270.771C559.047 270.771 557.197 270.634 555.347 270.497C545.59 269.712 504.345 269.285 467.17 311.343C467.17 311.343 433.831 345.782 408.128 442.711C406.942 446.771 405.082 450.596 402.627 454.02Z" fill="#FF5F54"/>
<path d="M363.563 469.856C363.563 469.856 388.476 508.993 486.223 542.032L517.376 550.573C561.517 562.472 608.498 556.217 648.127 533.166L649.153 532.602C649.153 532.602 707.472 498.88 741.804 453.798C715.95 464.424 666.883 467.584 573.693 438.919C573.693 438.919 504.272 466.713 402.555 454.106C396.836 462.425 385.212 472.111 363.563 469.856Z" fill="url(#paint6_linear)"/>
<path d="M547.241 447.545C546.669 454.823 555.651 461.502 567.191 462.442C578.73 463.381 588.654 458.273 589.226 450.996C589.798 443.719 580.816 437.039 569.293 436.083C557.771 435.126 547.829 440.353 547.241 447.545Z" fill="#511812"/>
<path d="M661.116 476.348C660.527 483.625 669.527 490.287 681.049 491.244C692.572 492.201 702.513 487.076 703.085 479.781C703.657 472.487 694.674 465.824 683.152 464.885C671.629 463.945 661.688 469.053 661.116 476.348Z" fill="#FFCDD4"/>
<path d="M436.834 474.844C436.077 482.104 444.824 489.023 456.38 490.219C467.937 491.414 477.945 486.614 478.719 479.354C479.493 472.094 470.746 465.175 459.173 463.979C447.6 462.783 437.608 467.584 436.834 474.844Z" fill="#FFCDD4"/>
<path d="M489.728 449.954C496.877 449.1 501.503 438.902 500.224 427.183C498.946 415.464 491.982 406.683 484.85 407.469C477.718 408.255 473.075 418.522 474.353 430.241C475.632 441.96 482.629 450.809 489.728 449.954Z" fill="#511812"/>
<path d="M646.746 448.092C653.895 447.255 658.521 437.057 657.243 425.321C655.964 413.585 649 404.821 641.868 405.607C634.736 406.393 630.093 416.66 631.372 428.396C632.65 440.132 639.597 448.895 646.746 448.092Z" fill="#511812"/>
<path d="M527.307 463.33V463.415C535.718 489.347 557.703 485.299 557.939 485.247C558.733 485.091 559.433 484.621 559.886 483.94C560.339 483.259 560.506 482.424 560.353 481.617C560.199 480.811 559.736 480.099 559.065 479.64C558.395 479.18 557.572 479.01 556.778 479.166C556.021 479.302 539.755 482.07 533.111 461.485C532.836 460.741 532.292 460.132 531.59 459.783C530.888 459.434 530.08 459.371 529.334 459.607C528.587 459.843 527.958 460.36 527.575 461.052C527.192 461.744 527.084 462.559 527.274 463.33H527.307Z" fill="#511812"/>
<path d="M383.382 500.896C382.002 499.461 379.832 501.647 381.212 503.082C427.756 551.307 431.423 634.194 412.65 695.983C412.577 696.368 412.65 696.766 412.853 697.099C413.057 697.431 413.377 697.674 413.748 697.777C414.12 697.881 414.517 697.838 414.859 697.657C415.201 697.477 415.464 697.172 415.594 696.803C434.653 633.835 430.733 550.043 383.382 500.896Z" fill="#511812"/>
<path d="M393.95 565.965C391.191 550.18 387.12 524.795 373.512 514.357C371.931 513.161 370.417 515.86 371.964 517.039C388.651 529.834 392.301 571.295 393.647 589.795C395.161 610.397 394.252 631.068 393.209 651.687C393.108 653.686 396.17 653.669 396.271 651.687C397.701 623.141 398.878 594.22 393.95 565.965Z" fill="#511812"/>
</g>
<defs>
<filter id="filter0_f" x="104.328" y="611.15" width="513.019" height="299.93" filterUnits="userSpaceOnUse" color-interpolation-filters="sRGB">
<feFlood flood-opacity="0" result="BackgroundImageFix"/>
<feBlend mode="normal" in="SourceGraphic" in2="BackgroundImageFix" result="shape"/>
<feGaussianBlur stdDeviation="5" result="effect1_foregroundBlur"/>
</filter>
<linearGradient id="paint0_linear" x1="1683.5" y1="186" x2="-531" y2="1741" gradientUnits="userSpaceOnUse">
<stop offset="0.291667" stop-color="#393939"/>
<stop offset="1"/>
</linearGradient>
<linearGradient id="paint1_linear" x1="1605" y1="546.5" x2="749" y2="1555" gradientUnits="userSpaceOnUse">
<stop stop-color="#CFC6E8"/>
<stop offset="0.53125" stop-color="#A39DB6"/>
</linearGradient>
<linearGradient id="paint2_linear" x1="352.515" y1="581.836" x2="498.974" y2="760.072" gradientUnits="userSpaceOnUse">
<stop stop-color="#F6625A"/>
<stop offset="1" stop-color="#D95149"/>
</linearGradient>
<linearGradient id="paint3_linear" x1="304.466" y1="433.009" x2="426.844" y2="439.569" gradientUnits="userSpaceOnUse">
<stop stop-color="#FFECEF"/>
<stop offset="1" stop-color="white"/>
</linearGradient>
<linearGradient id="paint4_linear" x1="393.137" y1="284.497" x2="455.29" y2="286.075" gradientUnits="userSpaceOnUse">
<stop stop-color="#FFECEF"/>
<stop offset="1" stop-color="white"/>
</linearGradient>
<linearGradient id="paint5_linear" x1="649.827" y1="239.825" x2="698.356" y2="240.691" gradientUnits="userSpaceOnUse">
<stop stop-color="#FFECEF"/>
<stop offset="1" stop-color="white"/>
</linearGradient>
<linearGradient id="paint6_linear" x1="420.21" y1="461.586" x2="716.729" y2="521.401" gradientUnits="userSpaceOnUse">
<stop stop-color="#FFECEF"/>
<stop offset="1" stop-color="white"/>
</linearGradient>
<clipPath id="clip0">
<rect width="519" height="753" fill="white" transform="translate(282 181)"/>
</clipPath>
</defs>
</svg>
