<svg width="1920" height="1151" viewBox="0 0 1920 1151" fill="none" xmlns="http://www.w3.org/2000/svg">
<rect width="1920" height="1151" fill="#FFF7ED"/>
<path d="M1370.38 658.773C1363.28 667.399 1360.14 684.657 1367.24 676.031C1606.48 384.786 1768.3 427.468 1818.66 612.348C1819.12 613.188 1820.08 613.003 1821.34 611.83C1822.61 610.657 1824.09 608.583 1825.49 606.022C1826.9 603.461 1828.11 600.602 1828.91 598.017C1829.7 595.432 1830 593.311 1829.76 592.078C1778.2 404.184 1613.93 362.546 1370.38 658.773Z" fill="#1E1A1A" fill-opacity="0.5"/>
<path d="M1315.65 855.331C1308.64 874.148 1312.12 905.494 1319.13 886.677C1555.14 251.628 1832 232.607 2002.11 520.594C2003.24 521.773 2004.67 520.911 2006.09 518.181C2007.52 515.452 2008.86 511.055 2009.82 505.87C2010.79 500.685 2011.32 495.095 2011.3 490.217C2011.29 485.338 2010.74 481.53 2009.75 479.556C1836.28 187.089 1556.03 209.3 1315.65 855.331Z" fill="#1E1A1A" fill-opacity="0.7"/>
<path d="M388 365C367.6 277.4 63.1667 350.5 -86.5 398L-17 1025L1602 937.5C1818.33 792.833 2221.1 451.7 2101.5 244.5C1952 -14.5 1051.5 507.5 865.5 562C679.5 616.5 413.5 474.5 388 365Z" fill="url(#paint0_linear)"/>
<path d="M920 342C627.509 252.06 179 245.5 -45 549.5L-85.5 1289.5C559.167 1353.33 1858.3 1480.1 1897.5 1476.5C1946.5 1472 2526 1013 2526 928.5C2526 860.9 2368.67 621 2290 509.5C2151.83 600.167 2166.5 124.5 1729.5 507.5C1555.6 659.912 1507 522.5 920 342Z" fill="url(#paint1_linear)"/>
<g filter="url(#filter0_f)">
<path fill-rule="evenodd" clip-rule="evenodd" d="M1818.97 436.265C1817.66 437.189 1816.35 438.123 1815.03 439.066C1813.73 455.664 1804.32 511.217 1737.69 568.972L1737.69 568.964C1804.26 511.259 1813.71 455.753 1814.98 439.1C1788.57 458.004 1760.15 480.641 1729.5 507.5C1659.09 569.207 1566.53 591.274 1442.33 583.706C1461.74 616.788 1490.28 641.861 1490.28 641.861L1491.03 642.484C1497.52 648.224 1504.63 653.269 1512.26 657.588C1511.49 658.431 1510.68 659.322 1509.85 660.26C1486.51 651.875 1426.33 639.391 1355.84 696.115C1352.06 699.128 1349.25 703.01 1347.84 707.166C1346.44 711.322 1346.52 715.523 1348.07 719.125C1349.08 721.46 1350.7 723.467 1352.8 725.008C1354.9 726.55 1357.44 727.589 1360.24 728.055C1363.05 728.521 1366.05 728.403 1369.04 727.709C1372.04 727.014 1374.96 725.761 1377.6 724.033C1395.57 712.106 1427.19 698.987 1478.1 701.237C1469.75 713.737 1461.41 727.966 1454.27 743.439C1449.87 752.985 1445.92 763.005 1442.72 773.384C1442.16 775.198 1441.62 777.022 1441.11 778.857C1438.89 786.732 1437.18 794.637 1435.99 802.527L1435.55 801.511L1302.23 863.191C1299.6 864.395 1297.18 866.028 1295.11 867.991C1293.04 869.954 1291.36 872.206 1290.18 874.61C1289 877.014 1288.34 879.518 1288.24 881.972C1288.14 884.426 1288.6 886.776 1289.6 888.881C1291.3 892.556 1294.53 895.312 1298.72 896.664C1302.91 898.015 1307.79 897.874 1312.5 896.265L1453.91 857.284C1458.61 861.697 1464.04 865.382 1470.06 868.249L1410.83 928.446C1408.34 929.919 1406.11 931.785 1404.29 933.93C1402.47 936.075 1401.09 938.454 1400.23 940.921C1399.37 943.389 1399.06 945.894 1399.3 948.284C1399.55 950.674 1400.35 952.898 1401.66 954.821C1403.92 958.149 1407.59 960.414 1412.02 961.217C1416.44 962.021 1421.35 961.313 1425.88 959.218L1540.46 876.88C1542.71 876.503 1544.97 876.053 1547.23 875.53C1553.2 874.145 1559.1 872.261 1564.85 869.911L1565.52 874.601C1577.71 884.644 1606.68 887.49 1624.67 887.646C1663.04 887.92 1703.36 860.063 1724.83 828.503C1739.76 806.583 1741.47 785.094 1743.22 763.011L1743.22 763.01L1743.22 763.009L1743.22 763.007L1743.22 763.006L1743.22 763.004L1743.22 763.003L1743.22 763.001L1743.22 763L1743.22 762.999L1743.22 762.997L1743.22 762.996L1743.22 762.993C1743.86 754.914 1744.51 746.756 1745.82 738.468C1746.83 732.235 1748.35 725.995 1750.37 719.801C1737.2 715.848 1725.4 709.529 1715.56 701.158C1715.45 701.063 1715.34 700.968 1715.23 700.872L1715.24 700.845C1715.37 700.952 1715.49 701.059 1715.61 701.166C1725.46 709.537 1737.26 715.857 1750.42 719.81C1757.94 695.77 1772.24 671.014 1787.8 650.391C1809.14 621.994 1834.67 599.457 1863.73 577.906C1855.66 579.524 1847.76 580.731 1839.9 581.93C1824.97 584.208 1810.23 586.459 1794.95 591.454C1775.93 597.715 1758.67 606.194 1742.12 616.794C1739.83 614.076 1738.4 611.163 1737.54 608.478C1677.03 606.479 1633.24 592.431 1609.2 582.362L1609.22 582.298C1633.26 592.367 1677.03 606.396 1737.5 608.394C1736.37 605.125 1735.89 601.594 1736.1 597.953C1736.65 591.553 1737.05 585.439 1737.32 579.605C1806.04 545.138 1817.48 470.78 1818.97 436.265ZM1713.53 699.312L1713.52 699.34C1709.13 695.283 1705.6 691.035 1702.64 686.57L1702.67 686.536C1705.62 691.004 1709.15 695.254 1713.53 699.312ZM1701.24 684.294C1696.8 677.02 1693.71 669.177 1690.8 660.656L1690.75 660.669C1693.67 669.199 1696.76 677.049 1701.21 684.328L1701.24 684.294ZM1638.11 671.714C1657.39 668.678 1674.17 665.063 1688.67 661.225C1677.13 674.139 1667.41 688.213 1659.84 703.003C1651.61 718.72 1646.03 735.348 1640.99 751.867C1641.89 743.565 1642.45 734.943 1642.57 726.015C1647.4 712.893 1649.37 701.022 1650.02 691.575C1650.24 688.684 1649.8 685.893 1648.73 683.38C1647.66 680.867 1645.99 678.685 1643.82 676.973C1642.26 675.748 1640.48 674.782 1638.52 674.103C1638.39 673.309 1638.25 672.512 1638.11 671.714Z" fill="url(#paint2_linear)"/>
</g>
<g clip-path="url(#clip0)">
<path d="M1538.57 814.796L1546.76 831.281C1563.43 840.335 1594.94 838.61 1613.88 835.757C1654.25 829.607 1685.81 792.024 1696.14 753.519C1705.98 716.979 1690.21 685.478 1683.37 650.441C1682.02 643.379 1681.21 636.223 1680.93 629.036C1665.58 626.88 1650.76 621.877 1637.19 614.276C1617.9 603.36 1606.48 589.215 1594.57 572.354C1586.87 589.243 1581.77 607.229 1579.43 625.688C1575.53 654.216 1578.89 684.043 1580.29 712.452C1582.31 752.306 1579.43 795.014 1538.57 814.796Z" fill="url(#paint3_linear)"/>
<path d="M1594.63 572.354C1606.54 589.215 1617.96 603.36 1637.26 614.276C1650.82 621.877 1665.65 626.88 1680.99 629.036C1679.6 601.19 1685.03 571.415 1693.39 545.995C1704.81 511.009 1722.89 481.798 1745.06 453.081C1722.34 462.203 1699.65 467.277 1678.12 479.628C1654.43 493.294 1635.68 510.89 1619.07 532.585C1609.47 544.86 1601.27 558.202 1594.63 572.354Z" fill="url(#paint4_linear)"/>
<path d="M1379.19 746.345C1379.91 755.528 1381.19 764.656 1383.02 773.678C1387.13 793.509 1397.84 811.297 1413.35 824.053C1428.86 836.808 1448.22 843.752 1468.17 843.718H1488.57C1502.11 843.713 1515.51 840.876 1527.92 835.385C1540.34 829.893 1551.5 821.864 1560.73 811.797C1569.95 801.731 1577.03 789.843 1581.54 776.875C1586.04 763.906 1587.86 750.135 1586.89 736.42C1586.22 726.819 1585.06 716.723 1583.29 706.149C1577.19 669.625 1563.7 627.567 1537.56 582.161L1413.4 587.285C1413.4 587.285 1372.29 660.742 1379.19 746.345Z" fill="#FF5F54"/>
<path d="M1399.68 594.862L1404.94 642.221C1344.67 669.416 1322.42 702.061 1314.3 724.45C1313.2 727.408 1311.48 730.096 1309.27 732.327C1307.06 734.559 1304.4 736.283 1301.47 737.381C1298.55 738.479 1295.43 738.924 1292.33 738.688C1289.23 738.451 1286.22 737.538 1283.51 736.01C1279.34 733.644 1276.06 729.953 1274.18 725.502C1272.29 721.051 1271.9 716.086 1273.07 711.369C1300.48 597.581 1399.68 594.862 1399.68 594.862Z" fill="#FF5F54"/>
<path d="M1526.81 831.185L1473.77 782L1405.22 916.832C1403.18 918.881 1401.56 921.318 1400.48 923.996C1399.39 926.674 1398.86 929.537 1398.92 932.409C1398.97 935.282 1399.61 938.105 1400.79 940.706C1401.97 943.306 1403.67 945.631 1405.79 947.537C1409.45 950.836 1414.17 952.724 1419.13 952.868C1424.09 953.012 1428.96 951.404 1432.91 948.325L1526.81 831.185Z" fill="#FF5F54"/>
<path d="M1427.71 828.511L1382.11 772.327L1266.02 862.947C1263.74 864.72 1261.83 866.933 1260.41 869.452C1259 871.971 1258.11 874.743 1257.8 877.599C1257.48 880.455 1257.76 883.336 1258.6 886.066C1259.44 888.796 1260.84 891.317 1262.7 893.477C1265.9 897.253 1270.36 899.758 1275.28 900.547C1280.2 901.336 1285.27 900.359 1289.59 897.789L1427.71 828.511Z" fill="#FF5F54"/>
<path d="M1397.1 738.64C1397.1 746.72 1397.49 754.646 1398.23 762.299C1399.74 778.215 1407.03 792.989 1418.67 803.745C1430.32 814.501 1445.5 820.469 1461.24 820.484C1476.98 820.458 1492.15 814.482 1503.78 803.719C1515.42 792.956 1522.69 778.178 1524.19 762.265C1524.93 754.612 1525.31 746.686 1525.31 738.605C1525.31 668.753 1496.6 612.055 1461.19 612.055C1425.78 612.055 1397.1 668.753 1397.1 738.64Z" fill="#F6F0F4"/>
<path d="M1379.19 746.344C1385.31 749.248 1391.35 751.794 1397.2 754.031C1449.55 773.626 1492.91 765.374 1525.04 750C1547.07 739.369 1566.86 724.487 1583.29 706.182C1577.19 669.659 1563.7 627.6 1537.56 582.194L1413.4 587.319C1413.4 587.319 1372.29 660.741 1379.19 746.344Z" fill="#FFA573"/>
<path d="M1398.54 732.867C1423.59 745.73 1464.63 739.324 1490.89 734.319C1492.8 733.96 1493.63 736.95 1491.69 737.308C1463.3 742.706 1423.85 749.266 1397.01 735.6C1395.24 734.643 1396.79 731.978 1398.54 732.867Z" fill="#511812"/>
<path d="M1533.39 598.44C1528.61 600.228 1524.52 603.53 1521.73 607.858C1518.94 612.187 1517.6 617.312 1517.89 622.476C1521.36 678.559 1504.02 714.434 1490.78 731.346C1488.87 733.837 1487.52 736.718 1486.81 739.79C1486.1 742.862 1486.05 746.054 1486.66 749.148C1487.28 752.241 1488.55 755.162 1490.38 757.712C1492.21 760.263 1494.56 762.381 1497.27 763.923C1501.45 766.291 1506.28 767.203 1511.01 766.518C1515.75 765.833 1520.14 763.589 1523.5 760.13C1578.45 704.252 1573.64 646.392 1564.71 614.703C1563.82 611.47 1562.28 608.459 1560.19 605.859C1558.1 603.26 1555.5 601.129 1552.56 599.601C1549.61 598.073 1546.39 597.181 1543.09 596.981C1539.79 596.781 1536.49 597.278 1533.39 598.44Z" fill="#FF5F54"/>
<path d="M1591.04 491.125L1590.71 490.425C1671.75 389.14 1638.58 302.205 1638.58 302.205C1592.45 342.982 1574.98 413.141 1569.12 445.309L1540.75 386.116C1541.13 382.836 1559.99 298.293 1636.21 283.789C1636.14 283.789 1700.45 431.984 1591.04 491.125Z" fill="#FF5F54"/>
<path d="M1590.7 490.424L1569.05 445.308C1574.9 413.141 1592.38 342.981 1638.5 302.204C1638.57 302.204 1671.74 389.139 1590.7 490.424Z" fill="url(#paint5_linear)"/>
<path d="M1417.55 436.272L1355.31 458.207C1359.5 442.439 1390.92 321.68 1385.37 253.433C1320.42 318.349 1314.92 388.389 1341.42 461.043C1332.72 449.631 1285.27 378.327 1362.56 270.943L1389.83 235.069C1389.83 235.069 1440.26 328.017 1417.55 436.272Z" fill="#FF5F54"/>
<path d="M1385.43 253.484C1390.98 321.73 1359.56 442.49 1355.37 458.257L1342.75 462.699C1342.75 462.699 1342.28 462.169 1341.48 461.093C1314.98 388.439 1320.48 318.399 1385.43 253.484Z" fill="url(#paint6_linear)"/>
<path d="M1624.37 508.02C1522.66 520.627 1453.23 492.833 1453.23 492.833C1360.05 521.498 1310.98 518.338 1285.12 507.712C1277.94 498.509 1271.95 488.41 1267.29 477.663C1267.29 477.663 1281.69 484.958 1287.92 479.747C1287.92 479.747 1266.2 470.933 1261.68 461.64C1261.68 461.64 1286.69 475.169 1306.1 454.396C1306.1 454.396 1355.91 327.982 1466.1 324.771C1467.95 324.771 1469.8 324.634 1471.65 324.498C1481.41 323.712 1522.66 323.285 1559.83 365.343C1559.83 365.343 1593.17 399.782 1618.87 496.711C1620.06 500.771 1621.92 504.596 1624.37 508.02Z" fill="#FF5F54"/>
<path d="M1663.44 523.856C1663.44 523.856 1638.52 562.993 1540.78 596.032L1509.62 604.573C1465.48 616.472 1418.5 610.217 1378.87 587.166L1377.85 586.602C1377.85 586.602 1319.53 552.88 1285.2 507.798C1311.05 518.424 1360.12 521.584 1453.31 492.919C1453.31 492.919 1522.73 520.713 1624.45 508.106C1630.16 516.425 1641.79 526.111 1663.44 523.856Z" fill="url(#paint7_linear)"/>
<path d="M1479.76 501.546C1480.33 508.823 1471.35 515.502 1459.81 516.442C1448.27 517.381 1438.35 512.274 1437.77 504.996C1437.2 497.719 1446.18 491.04 1457.71 490.083C1469.23 489.126 1479.17 494.354 1479.76 501.546Z" fill="#511812"/>
<path d="M1365.88 530.348C1366.47 537.625 1357.47 544.287 1345.95 545.244C1334.43 546.201 1324.49 541.076 1323.92 533.781C1323.34 526.487 1332.33 519.825 1343.85 518.885C1355.37 517.945 1365.31 523.053 1365.88 530.348Z" fill="#FFCDD4"/>
<path d="M1590.17 528.844C1590.92 536.104 1582.18 543.023 1570.62 544.219C1559.06 545.414 1549.06 540.614 1548.28 533.354C1547.51 526.094 1556.25 519.175 1567.83 517.979C1579.4 516.783 1589.39 521.584 1590.17 528.844Z" fill="#FFCDD4"/>
<path d="M1537.27 503.955C1530.12 503.1 1525.5 492.902 1526.78 481.183C1528.05 469.464 1535.02 460.683 1542.15 461.469C1549.28 462.255 1553.93 472.522 1552.65 484.241C1551.37 495.96 1544.37 504.809 1537.27 503.955Z" fill="#511812"/>
<path d="M1380.25 502.092C1373.11 501.255 1368.48 491.057 1369.76 479.321C1371.04 467.585 1378 458.821 1385.13 459.607C1392.26 460.393 1396.91 470.66 1395.63 482.396C1394.35 494.132 1387.4 502.895 1380.25 502.092Z" fill="#511812"/>
<path d="M1499.69 517.33V517.416C1491.28 543.347 1469.3 539.299 1469.06 539.248C1468.27 539.091 1467.57 538.621 1467.11 537.94C1466.66 537.259 1466.49 536.424 1466.65 535.617C1466.8 534.811 1467.26 534.1 1467.94 533.64C1468.61 533.18 1469.43 533.01 1470.22 533.166C1470.98 533.303 1487.25 536.07 1493.89 515.485C1494.16 514.741 1494.71 514.132 1495.41 513.783C1496.11 513.434 1496.92 513.371 1497.67 513.607C1498.41 513.843 1499.04 514.36 1499.43 515.052C1499.81 515.745 1499.92 516.56 1499.73 517.33H1499.69Z" fill="#511812"/>
<path d="M1643.62 554.896C1645 553.461 1647.17 555.647 1645.79 557.082C1599.24 605.308 1595.58 688.194 1614.35 749.983C1614.42 750.368 1614.35 750.766 1614.15 751.099C1613.94 751.431 1613.62 751.674 1613.25 751.777C1612.88 751.881 1612.48 751.838 1612.14 751.658C1611.8 751.477 1611.54 751.172 1611.41 750.803C1592.35 687.835 1596.27 604.043 1643.62 554.896Z" fill="#511812"/>
<path d="M1633.05 619.965C1635.81 604.18 1639.88 578.795 1653.49 568.357C1655.07 567.161 1656.58 569.86 1655.04 571.039C1638.35 583.834 1634.7 625.295 1633.35 643.795C1631.84 664.397 1632.75 685.068 1633.79 705.687C1633.89 707.686 1630.83 707.669 1630.73 705.687C1629.3 677.141 1628.12 648.22 1633.05 619.965Z" fill="#511812"/>
</g>
<path d="M-0.285159 655.791C-20.0437 662.404 -20.0436 676.692 -0.285129 670.079C665.476 445.996 1098.91 816.091 1231.15 1287.36C1232.38 1289.87 1235.01 1291.04 1238.52 1290.63C1242.03 1290.22 1246.17 1288.26 1250.1 1285.15C1254.03 1282.04 1257.46 1278 1259.72 1273.84C1261.97 1269.69 1262.88 1265.72 1262.26 1262.73C1126.83 783.171 677.448 428.224 -0.285159 655.791Z" fill="#8F80BC"/>
<path d="M2764.45 85.3485C2797.52 74.3077 2852.28 75.8252 2819.22 86.866C1703.39 458.59 1664.4 823.984 2164.7 1019.31C2166.74 1020.69 2165.2 1022.64 2160.4 1024.78C2155.59 1026.92 2147.88 1029.1 2138.79 1030.87C2129.7 1032.65 2119.9 1033.88 2111.37 1034.34C2102.84 1034.8 2096.19 1034.45 2092.75 1033.35C1584.68 834.032 1629.32 463.886 2764.45 85.3485Z" fill="#8F80BC"/>
<path d="M991.8 1410.67C1000.83 1424.74 1002.91 1450.92 993.878 1436.85C689.599 961.879 449.706 996.303 350.632 1261.67C349.854 1262.83 348.498 1262.39 346.834 1260.42C345.171 1258.45 343.324 1255.11 341.662 1251.06C340 1247.01 338.646 1242.55 337.87 1238.57C337.094 1234.59 336.953 1231.39 337.477 1229.6C438.708 959.98 682.008 927.545 991.8 1410.67Z" fill="#8F80BC"/>
<path d="M1437 643C1463 634.2 1437.83 606.667 1422 594C1419 586.5 1410.5 570 1400.5 564C1390.5 558 1374.67 633.167 1368 671.5L1310.5 787.5L1303.5 834.5C1312.17 836.667 1332.7 842.5 1345.5 848.5C1361.5 856 1389.5 840 1405.5 834.5C1421.5 829 1405.5 822 1405.5 811.5C1405.5 801 1408 768.5 1400.5 760C1393 751.5 1413 721.5 1427 719C1441 716.5 1422 668 1413 663C1404 658 1404.5 654 1437 643Z" fill="url(#paint8_linear)" fill-opacity="0.12"/>
<g filter="url(#filter1_f)">
<path d="M1290 896.5C1278 894.9 1285 883.833 1290 878.5L1442 864.5C1436.83 873.333 1426.3 892.1 1425.5 896.5C1424.5 902 1347.5 902 1342.5 904C1337.5 906 1305 898.5 1290 896.5Z" fill="black" fill-opacity="0.19"/>
</g>
<path d="M1436.41 624.851C1439.71 620.837 1425.4 606.846 1417.84 600.353C1414.89 591.4 1410.94 570.247 1408.11 569.066C1404.57 567.591 1393.96 591.203 1393.96 591.203C1388.66 591.203 1358.89 592.088 1360.36 595.335C1361.84 598.582 1347.1 572.313 1342.38 572.313C1340.32 572.313 1330.4 594.155 1332.07 600.353C1331.48 603.108 1329.24 620.718 1321.45 633.705C1318.63 638.428 1337.08 644.921 1345.33 648.168C1353.58 651.415 1355.85 679.387 1297.87 728.155C1275.77 746.75 1259.26 795.155 1282.84 822.604C1282.84 822.604 1336.78 825.556 1345.03 829.393C1353.29 833.23 1390.43 832.935 1397.79 829.393C1405.16 825.851 1403.4 815.226 1397.79 814.93C1392.19 814.635 1397.21 801.648 1389.84 784.529C1382.47 767.41 1405.46 722.252 1417.84 705.133C1430.22 688.014 1399.27 659.974 1408.11 648.168C1413.78 640.597 1432.28 629.868 1436.41 624.851Z" fill="url(#paint9_linear)"/>
<path fill-rule="evenodd" clip-rule="evenodd" d="M1392.52 792.387C1391.88 789.897 1391.01 787.266 1389.84 784.529C1384.08 771.157 1396.85 740.676 1408.61 719.814C1406.22 721.471 1403.18 722.939 1397.69 724.251C1364.39 732.221 1381.19 802.172 1381.19 802.172L1392.52 792.387Z" fill="url(#paint10_linear)"/>
<path fill-rule="evenodd" clip-rule="evenodd" d="M1411.79 669.456C1407.66 660.848 1404.42 653.095 1408.11 648.168C1409.06 646.897 1410.38 645.537 1411.92 644.13C1409.05 644.339 1405.45 645.006 1401 646.236C1377.45 652.736 1354.79 652 1332.85 642.198C1329.05 640.5 1326.05 639.203 1323.76 638.262C1328.03 641.494 1336.68 644.828 1342.69 647.146C1343.65 647.514 1344.54 647.856 1345.33 648.168C1347.37 648.972 1349.05 651.293 1349.54 655.072C1373.04 667.921 1401 682.635 1401 682.635L1409.19 672.599C1409.19 672.599 1410.26 671.384 1411.79 669.456Z" fill="url(#paint11_linear)"/>
<path fill-rule="evenodd" clip-rule="evenodd" d="M1431.56 613.666C1435.57 618.401 1438.23 622.805 1436.6 624.784C1434.81 626.96 1430.32 630.209 1425.34 633.809C1418.84 638.512 1411.51 643.813 1408.3 648.101C1404.27 653.489 1408.52 662.256 1413.16 671.824C1414.93 675.483 1416.76 679.259 1418.21 683.008C1411.6 694.374 1400.05 706.837 1400.05 706.837L1405.36 683.52C1405.36 683.52 1388.55 724.251 1390.32 714.806C1390.8 712.282 1391.31 710.215 1391.74 708.48C1393 703.374 1393.55 701.143 1390.32 698.573C1389.98 699.255 1389.74 699.641 1389.26 700.414C1388.9 700.98 1388.42 701.753 1387.67 703C1384.12 708.92 1375.75 690.414 1370.7 679.268C1368.99 675.497 1367.67 672.568 1367.04 671.714C1360.96 663.446 1355.15 659.103 1349.87 657.152C1349.83 652.098 1347.93 649.048 1345.52 648.101C1344.73 647.789 1343.84 647.447 1342.89 647.08C1333.92 643.623 1319.09 637.907 1321.65 633.639C1324.06 629.603 1325.95 625.12 1327.41 620.775C1332.69 622.826 1338.25 624.867 1341.69 618.881C1346.35 610.767 1358.18 615.967 1365.75 619.294C1367.26 619.961 1368.61 620.553 1369.69 620.947C1378.77 624.253 1381.36 622.592 1384.34 620.686C1385.32 620.054 1386.35 619.395 1387.67 618.881C1390.29 617.86 1392.63 618.57 1394.68 619.192C1396.77 619.829 1398.56 620.373 1400.05 618.881C1408.17 610.747 1420.4 610.655 1431.56 613.666Z" fill="url(#paint12_linear)"/>
<g filter="url(#filter2_d)">
<path d="M1395.33 620.947C1397.22 622.128 1394.45 623.997 1392.39 625.08C1390.13 623.801 1384.31 622.718 1386.2 621.538C1388.55 620.062 1392.98 619.472 1395.33 620.947Z" fill="url(#paint13_linear)"/>
</g>
<path d="M1370.28 623.604C1361.63 618.192 1343.99 610.735 1341.39 611.207M1371.75 628.621C1364.29 626.162 1347.76 631.337 1341.39 631.573" stroke="#736D6D" stroke-linecap="round" stroke-linejoin="round"/>
<path d="M1408.93 618.576C1416.03 611.24 1430.87 596.527 1433.5 596.36M1409.78 621.538C1416.43 617.351 1437.73 621.367 1443.97 620.062" stroke="#736D6D" stroke-linecap="round" stroke-linejoin="round"/>
<path d="M1389.73 728.088C1392.72 727.342 1401.23 723.071 1405.36 716.873C1392.29 708.116 1354.07 703 1345.82 707.723C1335.5 713.626 1333.44 738.714 1339.04 741.37C1344.64 744.027 1344.64 751.996 1350.24 762.622C1356.58 774.655 1358.49 798.04 1363.8 815.75C1366.82 825.84 1364.97 831.393 1370.28 832.278C1374.57 832.995 1381.78 831.097 1390.03 831.393C1398.28 831.688 1399.47 820.951 1395.33 817.225C1389.44 811.912 1384.22 817.661 1383.25 810.437C1381.19 795.089 1382.07 789.481 1377.35 774.133C1372.64 758.784 1386.2 728.974 1389.73 728.088Z" fill="url(#paint14_linear)"/>
<path d="M1276.26 862.089C1262.99 826.965 1267.22 823.03 1278.32 815.159L1282.44 810.732C1308.38 825.194 1340.92 841.369 1356.72 854.12C1376.47 870.058 1404.18 858.547 1415.38 843.789C1424.34 831.983 1452.22 837.886 1452.22 837.886H1442.2C1435.97 837.886 1454.19 840.739 1459 841.133C1454.09 846.937 1452.22 849.397 1452.22 849.397C1452.22 849.397 1451.83 849.299 1457.23 852.644C1446.42 850.873 1448.68 857.957 1438.07 877.142C1424.35 901.956 1340.81 897.212 1320.47 895.441C1300.13 893.67 1288.39 894.224 1276.26 862.089Z" fill="url(#paint15_linear)"/>
<path d="M1276.26 862.089C1262.99 826.965 1267.22 823.03 1278.32 815.159L1282.44 810.732C1308.38 825.194 1340.92 841.369 1356.72 854.12C1376.47 870.058 1404.18 858.547 1415.38 843.789C1424.34 831.983 1452.22 837.886 1452.22 837.886H1442.2C1435.97 837.886 1454.19 840.739 1459 841.133C1454.09 846.937 1452.22 849.397 1452.22 849.397C1452.22 849.397 1451.83 849.299 1457.23 852.644C1446.42 850.873 1448.68 857.957 1438.07 877.142C1424.35 901.956 1340.81 897.212 1320.47 895.441C1300.13 893.67 1288.39 894.224 1276.26 862.089Z" fill="url(#paint16_linear)"/>
<path fill-rule="evenodd" clip-rule="evenodd" d="M1400.19 615.869C1399.58 616.962 1399.27 617.519 1398.87 616.52C1398.07 614.527 1398.22 613.301 1402.28 609.02C1402.7 608.81 1403.13 608.612 1403.59 608.429C1407.34 606.913 1411.01 606.888 1412.68 608.204C1412.45 609.551 1410.81 609.84 1408.76 610.2C1407.51 610.421 1406.1 610.67 1404.77 611.207C1402.23 612.234 1400.97 614.482 1400.19 615.869Z" fill="url(#paint17_linear)"/>
<path d="M1383.13 616.866C1383.57 619.272 1380.13 614.652 1375.31 615.529C1370.5 616.406 1369.1 615.93 1366.16 614.426C1364 613.318 1367.92 611.798 1372.05 612.388C1376.7 613.054 1382.69 614.461 1383.13 616.866Z" fill="url(#paint18_linear)"/>
<path fill-rule="evenodd" clip-rule="evenodd" d="M1287.28 739.936C1288.86 741.235 1290.65 742.261 1292.59 742.961C1295.13 743.869 1297.86 744.185 1300.58 743.887C1303.29 743.589 1305.94 742.685 1308.34 741.235C1310.74 739.785 1312.84 737.825 1314.48 735.488C1316.12 733.151 1317.28 730.493 1317.86 727.695C1319.86 717.789 1324.27 705.382 1333.42 691.503C1340.22 677.719 1341.69 668.028 1340.74 662.102C1338.63 675.383 1327.65 697.719 1296.42 728.155C1293.19 731.308 1290.09 735.317 1287.28 739.936Z" fill="url(#paint19_linear)"/>
<path fill-rule="evenodd" clip-rule="evenodd" d="M1337.49 687.831C1354.45 664.008 1351.6 650.375 1345.99 648.168C1345.54 647.99 1345.06 647.802 1344.55 647.606C1344.17 647.458 1343.77 647.304 1343.36 647.146C1334.39 643.689 1319.56 637.974 1322.12 633.705C1324.15 630.322 1325.8 626.624 1327.14 622.957C1304.98 640.009 1283.66 667.395 1273.07 711.369C1271.9 716.086 1272.29 721.051 1274.18 725.502C1276.06 729.953 1279.34 733.644 1283.51 736.01C1286.22 737.538 1289.23 738.451 1292.33 738.688C1295.43 738.924 1298.55 738.479 1301.47 737.381C1304.4 736.283 1307.06 734.559 1309.27 732.327C1311.48 730.096 1313.2 727.408 1314.3 724.45C1318.11 713.957 1325.01 701.212 1337.49 687.831Z" fill="#FF5F54"/>
<path fill-rule="evenodd" clip-rule="evenodd" d="M1309.81 638.887C1315.4 632.766 1321.24 627.496 1327.14 622.957C1325.8 626.624 1324.15 630.322 1322.12 633.705C1321.92 634.038 1321.83 634.38 1321.83 634.729C1321.83 634.869 1321.84 635.011 1321.87 635.153C1322.74 639.197 1335.37 644.067 1343.36 647.146L1343.36 647.146L1343.36 647.146C1344.31 647.514 1345.2 647.856 1345.99 648.168C1346.86 648.507 1347.65 649.115 1348.32 649.987C1350.57 652.92 1351.39 658.844 1348.43 667.588C1347.88 669.208 1347.21 670.926 1346.38 672.74C1346.5 667.987 1346.47 662.432 1346 658C1345.16 650.044 1335.21 647.699 1322.89 644.797C1320.5 644.234 1318.02 643.65 1315.5 643C1312.66 642.267 1310.85 640.805 1309.81 638.887Z" fill="url(#paint20_linear)"/>
<defs>
<filter id="filter0_f" x="1284.22" y="432.265" width="583.502" height="533.275" filterUnits="userSpaceOnUse" color-interpolation-filters="sRGB">
<feFlood flood-opacity="0" result="BackgroundImageFix"/>
<feBlend mode="normal" in="SourceGraphic" in2="BackgroundImageFix" result="shape"/>
<feGaussianBlur stdDeviation="2" result="effect1_foregroundBlur"/>
</filter>
<filter id="filter1_f" x="1279.37" y="860.5" width="166.626" height="47.8359" filterUnits="userSpaceOnUse" color-interpolation-filters="sRGB">
<feFlood flood-opacity="0" result="BackgroundImageFix"/>
<feBlend mode="normal" in="SourceGraphic" in2="BackgroundImageFix" result="shape"/>
<feGaussianBlur stdDeviation="2" result="effect1_foregroundBlur"/>
</filter>
<filter id="filter2_d" x="1384.83" y="620.093" width="12.1358" height="6.98701" filterUnits="userSpaceOnUse" color-interpolation-filters="sRGB">
<feFlood flood-opacity="0" result="BackgroundImageFix"/>
<feColorMatrix in="SourceAlpha" type="matrix" values="0 0 0 0 0 0 0 0 0 0 0 0 0 0 0 0 0 0 127 0"/>
<feOffset dy="1"/>
<feGaussianBlur stdDeviation="0.5"/>
<feColorMatrix type="matrix" values="0 0 0 0 0 0 0 0 0 0 0 0 0 0 0 0 0 0 0.25 0"/>
<feBlend mode="normal" in2="BackgroundImageFix" result="effect1_dropShadow"/>
<feBlend mode="normal" in="SourceGraphic" in2="effect1_dropShadow" result="shape"/>
</filter>
<linearGradient id="paint0_linear" x1="1018.37" y1="172.815" x2="1018.37" y2="1025" gradientUnits="userSpaceOnUse">
<stop stop-color="#222222"/>
<stop offset="1" stop-color="#222222" stop-opacity="0"/>
</linearGradient>
<linearGradient id="paint1_linear" x1="110.5" y1="777" x2="2241" y2="1066.5" gradientUnits="userSpaceOnUse">
<stop stop-color="#CFC6E8"/>
<stop offset="1" stop-color="#DFDAED"/>
</linearGradient>
<linearGradient id="paint2_linear" x1="1710.76" y1="357.461" x2="1614.24" y2="991.986" gradientUnits="userSpaceOnUse">
<stop stop-color="#B9B1CF" stop-opacity="0"/>
<stop offset="1" stop-color="#8E88A8"/>
</linearGradient>
<linearGradient id="paint3_linear" x1="1674.49" y1="635.837" x2="1528.03" y2="814.072" gradientUnits="userSpaceOnUse">
<stop stop-color="#F6625A"/>
<stop offset="1" stop-color="#D95149"/>
</linearGradient>
<linearGradient id="paint4_linear" x1="1722.53" y1="487.009" x2="1600.16" y2="493.569" gradientUnits="userSpaceOnUse">
<stop stop-color="#FFECEF"/>
<stop offset="1" stop-color="white"/>
</linearGradient>
<linearGradient id="paint5_linear" x1="1633.86" y1="338.497" x2="1571.71" y2="340.076" gradientUnits="userSpaceOnUse">
<stop stop-color="#FFECEF"/>
<stop offset="1" stop-color="white"/>
</linearGradient>
<linearGradient id="paint6_linear" x1="1377.17" y1="293.826" x2="1328.64" y2="294.691" gradientUnits="userSpaceOnUse">
<stop stop-color="#FFECEF"/>
<stop offset="1" stop-color="white"/>
</linearGradient>
<linearGradient id="paint7_linear" x1="1606.79" y1="515.586" x2="1310.27" y2="575.401" gradientUnits="userSpaceOnUse">
<stop stop-color="#FFECEF"/>
<stop offset="1" stop-color="white"/>
</linearGradient>
<linearGradient id="paint8_linear" x1="1375.87" y1="563.661" x2="1375.87" y2="850.465" gradientUnits="userSpaceOnUse">
<stop stop-color="#5A7AE9" stop-opacity="0"/>
<stop offset="0.796875" stop-color="#292B34"/>
</linearGradient>
<linearGradient id="paint9_linear" x1="1354.11" y1="569" x2="1354.11" y2="832.161" gradientUnits="userSpaceOnUse">
<stop offset="0.0202024" stop-color="#AEB4B6"/>
<stop offset="1" stop-color="#8A979B"/>
</linearGradient>
<linearGradient id="paint10_linear" x1="1396.08" y1="721.524" x2="1396.4" y2="782.359" gradientUnits="userSpaceOnUse">
<stop stop-color="#5F5A59"/>
<stop offset="1" stop-color="#C4C4C4" stop-opacity="0"/>
</linearGradient>
<linearGradient id="paint11_linear" x1="1379.42" y1="636.295" x2="1387.99" y2="678.498" gradientUnits="userSpaceOnUse">
<stop stop-color="#595D5F"/>
<stop offset="1" stop-color="#C4C4C4" stop-opacity="0"/>
</linearGradient>
<linearGradient id="paint12_linear" x1="1379.22" y1="611.848" x2="1379.22" y2="716.227" gradientUnits="userSpaceOnUse">
<stop stop-color="#C4C4C4"/>
<stop offset="1" stop-color="#C4C4C4" stop-opacity="0"/>
</linearGradient>
<linearGradient id="paint13_linear" x1="1395.04" y1="615.93" x2="1390.88" y2="625.075" gradientUnits="userSpaceOnUse">
<stop stop-color="#716B6B"/>
<stop offset="1" stop-color="#323030"/>
</linearGradient>
<linearGradient id="paint14_linear" x1="1343.16" y1="696.507" x2="1344.35" y2="930.86" gradientUnits="userSpaceOnUse">
<stop stop-color="#9EA7AA" stop-opacity="0.12"/>
<stop offset="1" stop-color="#B0BDC1"/>
</linearGradient>
<linearGradient id="paint15_linear" x1="1343.16" y1="696.507" x2="1344.35" y2="930.86" gradientUnits="userSpaceOnUse">
<stop stop-color="#9EA7AA" stop-opacity="0.12"/>
<stop offset="1" stop-color="#B0BDC1"/>
</linearGradient>
<linearGradient id="paint16_linear" x1="1304.85" y1="806.009" x2="1459.4" y2="897.027" gradientUnits="userSpaceOnUse">
<stop stop-color="#8E9A9E"/>
<stop offset="1" stop-color="#B0BDC1"/>
</linearGradient>
<linearGradient id="paint17_linear" x1="1404.11" y1="608.219" x2="1406.5" y2="614.144" gradientUnits="userSpaceOnUse">
<stop offset="0.536458" stop-color="#464242"/>
<stop offset="1" stop-color="#C4C4C4" stop-opacity="0"/>
</linearGradient>
<linearGradient id="paint18_linear" x1="1373.63" y1="611.418" x2="1375.01" y2="619.013" gradientUnits="userSpaceOnUse">
<stop offset="0.536458" stop-color="#464242"/>
<stop offset="1" stop-color="#C4C4C4" stop-opacity="0"/>
</linearGradient>
<linearGradient id="paint19_linear" x1="1330.19" y1="679.5" x2="1300.18" y2="776.284" gradientUnits="userSpaceOnUse">
<stop stop-color="#6B6867" stop-opacity="0"/>
<stop offset="1" stop-color="#6B6867"/>
</linearGradient>
<linearGradient id="paint20_linear" x1="1350" y1="644" x2="1322.5" y2="671.5" gradientUnits="userSpaceOnUse">
<stop stop-color="#AA605B"/>
<stop offset="1" stop-color="#F06359" stop-opacity="0"/>
</linearGradient>
<clipPath id="clip0">
<rect width="519" height="753" fill="white" transform="matrix(-1 0 0 1 1745 235)"/>
</clipPath>
</defs>
</svg>
