<svg width="20" height="29" viewBox="0 0 20 29" fill="none" xmlns="http://www.w3.org/2000/svg">
<g clip-path="url(#clip0)">
<path d="M7.95483 22.3295L7.63915 22.9643C6.99677 23.313 5.78266 23.2466 5.05277 23.1367C3.49706 22.8999 2.28101 21.4525 1.883 19.9695C1.5038 18.5623 2.11117 17.3491 2.375 15.9997C2.42689 15.7277 2.45831 15.4522 2.46899 15.1753C3.06035 15.0923 3.63164 14.8996 4.15435 14.6069C4.89785 14.1865 5.33799 13.6418 5.79692 12.9924C6.09356 13.6428 6.2903 14.3355 6.38031 15.0464C6.5307 16.1451 6.40106 17.2938 6.34726 18.3879C6.26947 19.9228 6.38032 21.5676 7.95483 22.3295Z" fill="url(#paint0_linear)"/>
<path d="M5.79454 12.9924C5.3356 13.6418 4.89547 14.1865 4.15196 14.6069C3.62926 14.8996 3.05797 15.0923 2.46661 15.1753C2.52041 14.1029 2.31104 12.9562 1.98887 11.9772C1.54874 10.6298 0.851905 9.50481 -0.00244141 8.39886C0.873296 8.75019 1.74774 8.94559 2.57745 9.42126C3.49014 9.94759 4.2129 10.6252 4.85268 11.4608C5.22272 11.9335 5.53869 12.4473 5.79454 12.9924Z" fill="url(#paint1_linear)"/>
<path d="M14.0969 19.6932C14.0691 20.0469 14.0197 20.3984 13.9491 20.7459C13.7906 21.5096 13.3779 22.1947 12.7804 22.686C12.1828 23.1772 11.4368 23.4446 10.6678 23.4433H9.88154C9.35977 23.4431 8.84362 23.3339 8.36526 23.1224C7.88691 22.9109 7.4566 22.6016 7.10114 22.214C6.74569 21.8263 6.47271 21.3685 6.29922 20.869C6.12572 20.3696 6.05543 19.8392 6.09273 19.311C6.11866 18.9412 6.16338 18.5524 6.23144 18.1452C6.46675 16.7386 6.98661 15.1188 7.99394 13.3701L12.7784 13.5674C12.7784 13.5674 14.3626 16.3964 14.0969 19.6932Z" fill="#FF5F54"/>
<path d="M12.9552 13.9483L12.3472 15.68C14.3741 17.2227 14.9264 18.6405 15.0373 19.5511C15.0529 19.6716 15.094 19.7873 15.1578 19.8903C15.2215 19.9932 15.3064 20.081 15.4067 20.1475C15.507 20.214 15.6202 20.2578 15.7387 20.2758C15.8572 20.2938 15.9781 20.2856 16.0932 20.2518C16.2701 20.1991 16.4252 20.089 16.5345 19.9383C16.6439 19.7876 16.7015 19.6047 16.6986 19.4175C16.6565 14.9102 12.9552 13.9483 12.9552 13.9483Z" fill="#FF5F54"/>
<path d="M7.6404 21.2735L10.4277 21.2334L8.91284 26.8585C8.91856 26.9698 8.90189 27.0812 8.86385 27.1857C8.8258 27.2903 8.76718 27.3859 8.69155 27.4667C8.61592 27.5475 8.52487 27.6119 8.42395 27.6558C8.32302 27.6998 8.21434 27.7224 8.10452 27.7224C7.91464 27.7224 7.73078 27.6547 7.58513 27.5311C7.43948 27.4074 7.34133 27.2357 7.30786 27.046L7.6404 21.2735Z" fill="#FF5F54"/>
<path d="M10.5627 21.3926L13.3501 21.313L13.6197 26.9782C13.6254 27.0895 13.6088 27.2009 13.5707 27.3054C13.5327 27.41 13.4741 27.5056 13.3984 27.5864C13.3228 27.6672 13.2318 27.7316 13.1308 27.7755C13.0299 27.8195 12.9212 27.8421 12.8114 27.8421C12.6205 27.8434 12.4354 27.7761 12.2886 27.6522C12.1419 27.5283 12.043 27.3558 12.0096 27.1651L10.5627 21.3926Z" fill="#FF5F54"/>
<path d="M13.4063 19.3965C13.4063 19.7077 13.3914 20.0129 13.3628 20.3077C13.3047 20.9206 13.0238 21.4896 12.5749 21.9039C12.1261 22.3181 11.5413 22.5479 10.9346 22.5485C10.3281 22.5475 9.74366 22.3173 9.29523 21.9028C8.8468 21.4883 8.56652 20.9192 8.50901 20.3064C8.48049 20.0116 8.46558 19.7063 8.46558 19.3952C8.46558 16.705 9.57208 14.5214 10.9366 14.5214C12.3011 14.5214 13.4063 16.705 13.4063 19.3965Z" fill="#F6F0F4"/>
<path d="M14.0966 19.6932C13.8607 19.805 13.628 19.9031 13.4024 19.9893C11.3851 20.7439 9.71405 20.4261 8.47597 19.834C7.62695 19.4246 6.86453 18.8514 6.2312 18.1464C6.4665 16.7398 6.98637 15.1201 7.99369 13.3713L12.7782 13.5687C12.7782 13.5687 14.3624 16.3964 14.0966 19.6932Z" fill="#FFA573"/>
<path d="M13.3513 19.1741C12.3861 19.6695 10.8045 19.4228 9.79264 19.2301C9.71874 19.2163 9.68698 19.3314 9.76153 19.3452C10.8557 19.5531 12.3758 19.8057 13.4103 19.2794C13.4784 19.2426 13.4188 19.1399 13.3513 19.1741Z" fill="#511812"/>
<path d="M15.4262 17.0234C15.4262 17.0234 14.7203 16.3069 12.3076 16.576C12.3076 16.576 10.6307 16.9339 10.0427 16.4563L6.89502 20.1287L7.04216 20.5472L14.5433 20.8439L18.3678 16.7536V16.3701C18.3678 16.3701 18.2381 16.4004 18.0625 16.4359C17.6717 16.5155 17.2747 16.5596 16.8762 16.5675C16.4918 16.576 15.8657 16.655 15.4262 17.0234Z" fill="#F6F0F4"/>
<path d="M6.85229 20.8485L10.0428 16.9655L15.0308 17.4372H16.0997L18.5474 16.6668L14.4733 21.1314L12.7076 21.2261H11.406L6.85229 20.8485Z" fill="#021E40"/>
<path d="M16.0997 17.4373L12.7076 21.2262H11.3289L14.9381 17.4373H16.0997Z" fill="#194070"/>
<path d="M8.15466 13.997C8.33887 14.0659 8.49636 14.193 8.60387 14.3597C8.71138 14.5264 8.7632 14.7238 8.75166 14.9227C8.61813 17.0826 9.28644 18.4642 9.79658 19.1156C9.87009 19.2115 9.92232 19.3225 9.94969 19.4408C9.97706 19.5591 9.97893 19.682 9.95518 19.8012C9.93142 19.9203 9.88259 20.0328 9.81204 20.131C9.74148 20.2292 9.65086 20.3108 9.54637 20.3702C9.38538 20.4614 9.19936 20.4965 9.01682 20.4701C8.83429 20.4438 8.66531 20.3573 8.53581 20.2241C6.4181 18.0721 6.60348 15.8438 6.94769 14.6234C6.98191 14.4988 7.04119 14.3829 7.12178 14.2828C7.20237 14.1827 7.30253 14.1006 7.41594 14.0417C7.52935 13.9829 7.65354 13.9485 7.78068 13.9408C7.90783 13.9331 8.03517 13.9523 8.15466 13.997Z" fill="#FF5F54"/>
<path d="M5.93312 9.86404L5.94608 9.83707C2.82298 5.93633 4.10126 2.58822 4.10126 2.58822C5.87867 4.15865 6.55216 6.86069 6.77774 8.09953L7.87128 5.81988C7.85637 5.69356 7.12972 2.43756 4.19266 1.879C4.19525 1.879 1.71713 7.58636 5.93312 9.86404Z" fill="#FF5F54"/>
<path d="M5.94616 9.83704L6.78041 8.0995C6.55483 6.86066 5.88134 4.15863 4.10393 2.5882C4.10134 2.5882 2.82306 5.9363 5.94616 9.83704Z" fill="url(#paint2_linear)"/>
<path d="M12.6188 7.75151L15.0172 8.59627C14.8558 7.98902 13.6449 3.33826 13.8588 0.709908C16.3616 3.20996 16.5735 5.90739 15.5526 8.70548C15.8877 8.266 17.7163 5.51989 14.7378 1.38427L13.687 0.00265503C13.687 0.00265503 11.7437 3.58234 12.6188 7.75151Z" fill="#FF5F54"/>
<path d="M13.8563 0.711853C13.6424 3.3402 14.8533 7.99096 15.0147 8.59821L15.5008 8.76927C15.5008 8.76927 15.519 8.74888 15.5501 8.70743C16.571 5.90934 16.3591 3.21191 13.8563 0.711853Z" fill="url(#paint3_linear)"/>
<path d="M4.64844 10.5147C8.56819 11.0002 11.2434 9.92982 11.2434 9.92982C14.8345 11.0338 16.7253 10.9121 17.7216 10.5029C17.9983 10.1484 18.2292 9.75949 18.4087 9.3456C18.4087 9.3456 17.8539 9.62652 17.614 9.42586C17.614 9.42586 18.4509 9.08638 18.6252 8.72848C18.6252 8.72848 17.6613 9.24954 16.9133 8.44952C16.9133 8.44952 14.9939 3.58099 10.7475 3.45731C10.6762 3.45731 10.6049 3.45204 10.5336 3.44678C10.1576 3.41652 8.56819 3.40007 7.13563 5.01984C7.13563 5.01984 5.85087 6.34619 4.8604 10.0792C4.81471 10.2355 4.74302 10.3828 4.64844 10.5147Z" fill="#FF5F54"/>
<path d="M3.14307 11.1246C3.14307 11.1246 4.10307 12.6319 7.86984 13.9043L9.07034 14.2332C10.7713 14.6915 12.5818 14.4506 14.1089 13.5628L14.1484 13.5411C14.1484 13.5411 16.3958 12.2424 17.7188 10.5062C16.7225 10.9154 14.8317 11.0371 11.2406 9.93314C11.2406 9.93314 8.56538 11.0036 4.64563 10.518C4.42523 10.8384 3.97732 11.2115 3.14307 11.1246Z" fill="url(#paint4_linear)"/>
<path d="M10.221 10.2654C10.1989 10.5456 10.5451 10.8029 10.9897 10.8391C11.4344 10.8752 11.8169 10.6785 11.8389 10.3983C11.8609 10.118 11.5148 9.86075 11.0708 9.8239C10.6267 9.78706 10.2437 9.98838 10.221 10.2654Z" fill="#511812"/>
<path d="M14.6095 11.3746C14.5868 11.6549 14.9336 11.9115 15.3776 11.9483C15.8216 11.9852 16.2047 11.7878 16.2267 11.5068C16.2488 11.2259 15.9026 10.9693 15.4586 10.9332C15.0146 10.897 14.6315 11.0937 14.6095 11.3746Z" fill="#FFCDD4"/>
<path d="M5.96685 11.3167C5.93768 11.5963 6.27475 11.8628 6.72007 11.9088C7.1654 11.9549 7.55108 11.77 7.5809 11.4904C7.61072 11.2108 7.27365 10.9443 6.82768 10.8983C6.3817 10.8522 5.99666 11.0371 5.96685 11.3167Z" fill="#FFCDD4"/>
<path d="M8.00467 10.3581C8.28016 10.3252 8.45842 9.93247 8.40916 9.48114C8.35989 9.02982 8.09153 8.69165 7.81669 8.72191C7.54185 8.75218 7.36294 9.14758 7.4122 9.59891C7.46147 10.0502 7.73113 10.391 8.00467 10.3581Z" fill="#511812"/>
<path d="M14.0559 10.2864C14.3314 10.2542 14.5097 9.86141 14.4604 9.40943C14.4112 8.95744 14.1428 8.61994 13.868 8.6502C13.5931 8.68047 13.4142 9.07587 13.4635 9.52785C13.5127 9.97984 13.7805 10.3173 14.0559 10.2864Z" fill="#511812"/>
<path d="M9.45282 10.8733V10.8766C9.77693 11.8753 10.6241 11.7193 10.6332 11.7174C10.6638 11.7113 10.6908 11.6932 10.7083 11.667C10.7257 11.6408 10.7322 11.6086 10.7262 11.5776C10.7203 11.5465 10.7025 11.5191 10.6766 11.5014C10.6508 11.4837 10.6191 11.4771 10.5885 11.4831C10.5593 11.4884 9.9325 11.595 9.67646 10.8022C9.66589 10.7736 9.64492 10.7501 9.61786 10.7367C9.5908 10.7232 9.55969 10.7208 9.53091 10.7299C9.50214 10.739 9.47788 10.7589 9.46312 10.7855C9.44836 10.8122 9.44421 10.8436 9.45153 10.8733H9.45282Z" fill="#511812"/>
<path d="M3.90678 12.32C3.85363 12.2648 3.77001 12.349 3.82316 12.4042C5.61677 14.2615 5.75808 17.4537 5.03468 19.8333C5.03186 19.8482 5.03465 19.8635 5.04249 19.8763C5.05034 19.8891 5.06266 19.8985 5.07699 19.9024C5.09132 19.9064 5.10661 19.9048 5.11979 19.8978C5.13298 19.8909 5.14309 19.8791 5.14811 19.8649C5.88254 17.4399 5.73151 14.2128 3.90678 12.32Z" fill="#511812"/>
<path d="M4.3138 14.826C4.2075 14.2181 4.05063 13.2404 3.52623 12.8384C3.46529 12.7924 3.40695 12.8963 3.46659 12.9417C4.10962 13.4345 4.25028 15.0313 4.30214 15.7438C4.36048 16.5372 4.32547 17.3333 4.28528 18.1274C4.28139 18.2044 4.39937 18.2037 4.40326 18.1274C4.45836 17.028 4.50373 15.9142 4.3138 14.826Z" fill="#511812"/>
</g>
<defs>
<linearGradient id="paint0_linear" x1="2.71733" y1="15.4373" x2="8.35717" y2="22.3049" gradientUnits="userSpaceOnUse">
<stop stop-color="#F6625A"/>
<stop offset="1" stop-color="#D95149"/>
</linearGradient>
<linearGradient id="paint1_linear" x1="0.865728" y1="9.70553" x2="5.58161" y2="9.95845" gradientUnits="userSpaceOnUse">
<stop stop-color="#FFECEF"/>
<stop offset="1" stop-color="white"/>
</linearGradient>
<linearGradient id="paint2_linear" x1="4.28272" y1="3.98595" x2="6.67783" y2="4.0468" gradientUnits="userSpaceOnUse">
<stop stop-color="#FFECEF"/>
<stop offset="1" stop-color="white"/>
</linearGradient>
<linearGradient id="paint3_linear" x1="14.1745" y1="2.26552" x2="16.0445" y2="2.29888" gradientUnits="userSpaceOnUse">
<stop stop-color="#FFECEF"/>
<stop offset="1" stop-color="white"/>
</linearGradient>
<linearGradient id="paint4_linear" x1="5.32596" y1="10.8061" x2="16.752" y2="13.1124" gradientUnits="userSpaceOnUse">
<stop stop-color="#FFECEF"/>
<stop offset="1" stop-color="white"/>
</linearGradient>
<clipPath id="clip0">
<rect width="20" height="29" fill="white"/>
</clipPath>
</defs>
</svg>
