<svg width="54" height="55" viewBox="0 0 54 55" fill="none" xmlns="http://www.w3.org/2000/svg">
<g clip-path="url(#clip0_41_0)">
<path d="M52.5929 36.0764C50.7425 34.6225 41.6492 28.2299 33.6264 22.5897C31.3428 20.9842 29.1464 19.4399 27.2298 18.0891C26.8735 17.838 26.3812 17.9231 26.1301 18.2794C25.879 18.6357 25.9641 19.128 26.3203 19.3791C28.2378 20.7302 30.4347 22.275 32.7187 23.8805C40.7254 29.5095 49.8006 35.8894 51.6178 37.3174C52.0464 37.654 52.9332 38.6945 51.9178 41.08C50.9422 43.373 48.9574 45.0517 47.9654 44.914C47.2244 44.8109 45.4627 44.1082 41.9845 40.5642C41.6792 40.2532 41.1799 40.2482 40.8688 40.5536C40.5578 40.8589 40.5528 41.3586 40.8582 41.6697C43.8013 44.6683 46.0545 46.241 47.7471 46.4772C47.854 46.492 47.9629 46.4994 48.0743 46.4994C48.9779 46.4994 50.002 46.008 50.9969 45.0891C51.9712 44.1887 52.8362 42.9526 53.37 41.698C54.3855 39.3113 54.1023 37.2627 52.5929 36.0764Z" fill="#FF5145"/>
<path d="M37.6201 35.5948C37.3513 35.2496 36.8348 35.1916 36.4962 35.4698C35.2732 36.4754 31.5102 38.3292 26.618 39.0232C22.6993 39.5792 16.9589 39.5357 11.8644 36.1734C11.5007 35.9334 11.0113 36.0332 10.7709 36.3973C10.5309 36.761 10.6312 37.2504 10.9949 37.4904C13.0266 38.8313 15.1454 39.6844 17.2214 40.1977V45.3045L13.4946 45.8695C13.0636 45.9344 12.7673 46.3367 12.8326 46.7678C12.8971 47.1931 13.3056 47.4939 13.7309 47.4298L15.9418 47.0945L14.7973 48.3606C14.5047 48.6836 14.5302 49.1825 14.8532 49.4751C15.1721 49.7631 15.6796 49.7377 15.9677 49.4188L18.5956 46.5118C18.5973 46.5106 18.5981 46.5085 18.5993 46.5073C18.7242 46.3667 18.7994 46.1826 18.7994 45.9829V40.5269C20.2217 40.7701 21.6074 40.8679 22.9117 40.8679C23.5557 40.8679 24.1787 40.8433 24.7778 40.8018V46.0228L21.051 46.5874C20.6203 46.6527 20.324 47.0551 20.3894 47.4857C20.4539 47.911 20.8624 48.2123 21.2877 48.1477L23.4981 47.8128L22.3537 49.0785C22.0615 49.4019 22.0866 49.9008 22.41 50.193C22.7289 50.4815 23.236 50.456 23.5244 50.1371L26.1524 47.2301C26.1536 47.2289 26.1544 47.2272 26.1557 47.2256C26.2806 47.0855 26.3562 46.901 26.3562 46.7008V40.6493C26.5198 40.6292 26.6817 40.6078 26.8399 40.5852C31.0307 39.9906 34.8429 38.4944 36.8524 37.1617C37.2572 37.6597 37.8954 38.4294 38.6832 39.3232C38.9712 39.6499 39.4697 39.6816 39.7968 39.3935C40.1239 39.105 40.1552 38.6065 39.8671 38.2798C38.5447 36.7799 37.6291 35.6063 37.6201 35.5948Z" fill="#FF5145"/>
<path d="M8.49043 33.303C6.5697 31.2347 5.12484 28.8188 4.2368 26.2233C5.15853 26.6215 6.18794 26.6576 7.16721 26.4892C9.39203 26.1074 10.6898 24.7073 10.8628 22.5261C11.593 22.0009 12.0775 20.9324 12.1478 19.5624C12.2768 17.0441 10.9244 14.117 7.6517 13.6407C6.40861 13.4599 5.25962 13.5799 4.24748 13.9855C5.66687 10.0869 8.3577 7.48773 11.4447 7.18281C14.9972 6.83228 17.7362 8.38769 19.5862 11.8059C20.6957 13.8561 22.1172 15.711 23.8103 17.3203C24.1218 17.6162 24.6297 17.6034 24.9255 17.2919C25.2259 16.9759 25.2132 16.4762 24.8972 16.1762C23.3245 14.6816 22.0046 12.9586 20.9744 11.0547C19.4748 8.28372 16.5769 5.09113 11.2898 5.6122C7.0657 6.0293 3.5045 9.87364 2.16977 15.4295C0.436838 17.3067 -0.0250585 20.0941 0.137673 22.155C0.236299 23.4038 0.492314 24.8824 1.60555 25.2374C1.83239 25.3098 2.07114 25.3274 2.3062 25.2933C3.18602 28.6445 4.91156 31.7681 7.33364 34.3763C7.68088 34.7507 8.04415 35.114 8.41235 35.4567C8.72713 35.7497 9.23505 35.7312 9.52764 35.4164C9.82434 35.0975 9.80667 34.5982 9.48737 34.3011C9.14711 33.9847 8.81138 33.649 8.49043 33.303ZM6.9001 24.9338C5.71453 25.1372 4.7928 24.919 4.10242 24.2684C4.74718 23.6923 5.46756 22.8897 6.30341 21.8891C6.6112 21.5205 6.78585 21.4034 6.85407 21.368C6.9453 21.4264 7.10967 21.5875 7.22351 21.6984C7.64513 22.1114 8.2488 22.6987 9.23053 22.8474C9.00452 24.0309 8.25003 24.702 6.9001 24.9338ZM3.56655 16.2601C4.36501 15.5117 5.36113 15.1353 6.536 15.1353C6.82161 15.1353 7.11789 15.1575 7.42404 15.2019C10.0619 15.5857 10.6438 18.0727 10.5714 19.4814C10.5123 20.6366 10.0697 21.2924 9.78612 21.3043C9.10602 21.3335 8.74521 20.9801 8.3277 20.5708C7.95169 20.203 7.48199 19.7432 6.79037 19.7798C6.06794 19.8155 5.50331 20.3851 5.09237 20.8774C4.21502 21.9273 3.55751 22.6366 3.0237 23.1096C2.45989 23.6097 2.18004 23.7063 2.09292 23.7248C2.02306 23.6381 1.80938 23.2773 1.71075 22.0309C1.53076 19.7493 2.25894 17.4838 3.56655 16.2601Z" fill="#FF5145"/>
<path d="M19.5386 31.2852C21.0344 31.9805 22.9445 32.5698 25.1253 32.5698C27.2852 32.5698 29.7102 31.9916 32.2572 30.3651C32.6246 30.1309 32.7318 29.6427 32.4976 29.2757C32.2629 28.9084 31.7751 28.8007 31.4078 29.0353C27.7985 31.3395 24.045 31.6226 20.252 29.8765C17.3656 28.548 15.525 26.4855 15.497 26.4538C15.2098 26.1267 14.7117 26.0938 14.3842 26.3811C14.0563 26.6683 14.0234 27.1668 14.3106 27.4947C14.3924 27.588 16.3575 29.8067 19.5386 31.2852Z" fill="#FF5145"/>
<path d="M16.0268 14.0328C16.0268 12.9171 15.3237 12.0434 14.4254 12.0434C13.5275 12.0434 12.824 12.9175 12.824 14.0328C12.824 15.148 13.5275 16.0221 14.4254 16.0221C15.3237 16.0221 16.0268 15.148 16.0268 14.0328Z" fill="#FF5145"/>
</g>
<defs>
<clipPath id="clip0_41_0">
<rect width="53.8627" height="53.8627" fill="white" transform="translate(0.107422 0.927063)"/>
</clipPath>
</defs>
</svg>
