<svg width="55" height="55" viewBox="0 0 55 55" fill="none" xmlns="http://www.w3.org/2000/svg">
<g clip-path="url(#clip0_41_10)">
<path d="M19.1982 37.8081C19.2102 37.8081 19.2217 37.8077 19.2332 37.8073C19.67 37.7883 20.009 37.4189 19.9901 36.9821C19.8899 34.6644 19.7662 33.1953 19.6125 32.4909C19.3224 31.1603 17.9009 28.9527 15.2676 25.7425C13.3773 23.4383 11.5387 21.4601 11.5203 21.4399C11.3505 21.2579 11.1044 21.1658 10.8562 21.1926C8.33054 21.4638 6.30502 20.9522 4.83591 19.6721C3.76418 18.738 3.12764 17.5171 2.74957 16.4252C3.72144 15.9658 4.37484 14.9939 4.39949 13.8729L9.81568 12.6068C10.0816 12.5447 10.2965 12.3504 10.3848 12.0923C10.3984 12.052 11.8042 8.08071 15.8898 8.08071C17.2109 8.08071 18.5933 8.18796 19.7522 8.96752C21.1572 9.91227 22.0596 11.7003 22.5108 14.4338C22.8511 16.4972 23.8098 19.2603 26.4435 20.7031C27.9591 21.534 29.3538 21.5369 29.5445 21.5328H30.8126C31.2495 21.5328 31.6041 21.1786 31.6041 20.7409C31.6041 20.3037 31.2495 19.9495 30.8126 19.9495H29.535C29.5284 19.9495 29.5169 19.9495 29.51 19.9499C29.3283 19.9556 25.034 19.9992 24.0728 14.1758C23.5468 10.9885 22.4229 8.85492 20.6361 7.65374C19.1247 6.63708 17.4616 6.49695 15.8898 6.49695C13.7307 6.49695 11.8326 7.37841 10.4 9.04642C9.69979 9.86213 9.27324 10.6795 9.05832 11.1574L1.22951 12.9881C0.863771 13.0736 0.608578 13.4044 0.61844 13.78C0.622961 13.96 0.769666 18.219 3.78473 20.8564C5.51889 22.3732 7.8181 23.0274 10.6236 22.8047C11.1915 23.4264 12.601 24.9892 14.043 26.7468C17.2381 30.6417 17.9346 32.2292 18.0653 32.8287C18.1561 33.2454 18.2897 34.3159 18.408 37.0507C18.4265 37.4756 18.777 37.8081 19.1982 37.8081V37.8081Z" fill="#FF5145"/>
<path d="M33.9791 21.5328H43.824C44.5062 21.5328 45.1403 21.5715 45.709 21.6475C45.9868 21.6853 46.2703 21.5678 46.4413 21.3458C48.4035 18.798 50.3551 14.7753 48.5128 10.0804C48.353 9.67311 47.8936 9.47216 47.4867 9.63243C47.0795 9.79187 46.8789 10.2513 47.0388 10.6585C48.5293 14.4569 47.0676 17.7929 45.4522 20.0243C44.9426 19.975 44.3969 19.9495 43.824 19.9495H33.9791C33.5419 19.9495 33.1873 20.3041 33.1873 20.7414C33.1873 21.1786 33.5419 21.5328 33.9791 21.5328V21.5328Z" fill="#FF5145"/>
<path d="M53.4642 7.73885C52.1201 4.80597 50.0695 2.96866 47.3696 2.27705C45.0622 1.68653 42.7461 2.08391 41.2096 2.52074C40.6409 2.68265 40.2579 3.21276 40.2825 3.80328C40.3064 4.38722 40.7218 4.88035 41.2922 5.00569C42.4786 5.26622 44.1963 6.00222 45.6424 8.02691C45.8968 8.38279 46.3912 8.46539 46.747 8.21101C47.1029 7.95705 47.1851 7.46228 46.9311 7.10641C45.5923 5.23211 44.0377 4.27175 42.728 3.78273C43.9646 3.53987 45.4867 3.42973 46.9767 3.8115C49.1913 4.37818 50.8897 5.92167 52.0251 8.39881C53.3323 11.2511 53.8107 15.8524 48.6641 21.5723C48.353 21.9183 48.4138 22.4751 48.7919 22.7459C50.2869 23.8164 51.0134 25.6661 51.0134 28.4009C51.0134 34.311 48.9234 38.7644 48.9028 38.8079C48.8514 38.9144 48.8251 39.0315 48.8251 39.1498V50.2378C48.8251 51.3453 47.9244 52.2461 46.8169 52.2461C45.7094 52.2461 44.8086 51.3453 44.8086 50.2378V43.7195C44.8086 43.3936 44.6089 43.101 44.3056 42.9822C41.75 41.9824 40.668 38.4138 40.6577 38.3789C40.5587 38.0415 40.2493 37.8098 39.8975 37.8098H24.9364C24.4992 37.8098 24.1445 38.164 24.1445 38.6012V50.297C24.1445 51.372 23.2705 52.2461 22.1954 52.2461C21.127 52.2461 20.2525 51.3769 20.2464 50.3085C20.2312 47.6559 20.1938 43.7548 20.1001 40.2347C20.0881 39.7975 19.7236 39.4519 19.2876 39.4642C18.8504 39.4757 18.5056 39.8394 18.5171 40.2766C18.6104 43.7832 18.6478 47.6723 18.663 50.3175C18.6741 52.2543 20.2587 53.8294 22.1959 53.8294C24.1437 53.8294 25.7283 52.2448 25.7283 50.297V39.3931H39.3349C39.7701 40.533 40.9557 43.0698 43.2253 44.2303V50.2378C43.2253 52.2181 44.8366 53.8294 46.8173 53.8294C48.7976 53.8294 50.4085 52.2181 50.4085 50.2378V39.3224C50.8129 38.4171 52.5972 34.0969 52.5972 28.4005C52.5972 26.7432 52.3436 25.3123 51.8439 24.1481C51.4864 23.3151 50.9961 22.5992 50.3814 22.0116C51.938 20.164 53.0689 18.2663 53.7474 16.3616C54.8121 13.3724 54.7168 10.4716 53.4642 7.73885V7.73885Z" fill="#FF5145"/>
<path d="M19.7681 12.4946C19.7176 14.3098 19.1661 16.1175 18.6545 16.1446C18.6492 16.1446 18.6434 16.145 18.6376 16.145C18.0151 16.145 17.1077 14.3418 16.7046 12.7067C16.6006 12.2818 16.1724 12.0212 15.7471 12.126C15.3226 12.23 15.0625 12.6586 15.1664 13.0831C15.3588 13.8676 16.4182 17.7284 18.636 17.7284C18.6697 17.7284 18.7038 17.7275 18.7379 17.7259C21.0971 17.6018 21.3285 13.3819 21.3511 12.5374C21.3626 12.1006 21.0178 11.7369 20.581 11.725C20.1413 11.7089 19.7801 12.0578 19.7681 12.4946Z" fill="#FF5145"/>
<path d="M11.2395 14.0237C11.2395 15.0173 11.8785 15.7957 12.6946 15.7957C13.5108 15.7957 14.1502 15.0173 14.1502 14.0237C14.1502 13.03 13.5108 12.2521 12.6946 12.2521C11.8789 12.2521 11.2395 13.03 11.2395 14.0237Z" fill="#FF5145"/>
</g>
<defs>
<clipPath id="clip0_41_10">
<rect width="53.8627" height="53.8627" fill="white" transform="translate(0.61792 0.927063)"/>
</clipPath>
</defs>
</svg>
